<?xml version="1.0" standalone="no"?>
<!DOCTYPE svg PUBLIC "-//W3C//DTD SVG 20010904//EN"
 "http://www.w3.org/TR/2001/REC-SVG-20010904/DTD/svg10.dtd">
<svg version="1.0" xmlns="http://www.w3.org/2000/svg"
 width="32.000000pt" height="32.000000pt" viewBox="0 0 512.000000 512.000000"
 preserveAspectRatio="xMidYMid meet">
<metadata>
Created by potrace 1.15, written by Peter Selinger 2001-2017
</metadata>
<g transform="translate(0.000000,512.000000) scale(0.100000,-0.100000)"
fill="#FFFFFF" stroke="none">
<path d="M2703 5105 c-84 -23 -154 -64 -214 -126 l-57 -58 -62 20 c-78 24
-142 24 -221 -1 l-63 -19 -37 34 c-48 43 -102 71 -176 90 -147 38 -287 0 -403
-111 -65 -62 -107 -137 -123 -222 -10 -55 -14 -61 -53 -81 -60 -32 -130 -106
-162 -171 -24 -49 -27 -66 -27 -155 0 -89 3 -107 28 -160 15 -33 45 -77 65
-99 39 -41 142 -96 180 -96 l22 0 0 -195 0 -196 -172 7 c-108 4 -198 2 -238
-5 -79 -13 -226 -84 -292 -141 -61 -53 -140 -171 -167 -251 -38 -112 -43 -229
-39 -986 l4 -718 27 -83 c52 -153 165 -288 299 -355 97 -48 154 -57 375 -57
l203 0 0 -184 0 -184 -47 -7 c-63 -9 -97 -30 -123 -77 -20 -36 -21 -49 -18
-232 3 -217 8 -232 79 -268 32 -17 128 -18 1572 -18 1714 0 1583 -5 1629 69
21 33 23 50 26 207 2 103 -1 187 -7 212 -12 44 -69 102 -101 102 -10 0 -25 3
-34 6 -15 6 -16 163 -16 1678 l0 1673 38 11 c162 49 262 231 218 401 -35 136
-142 232 -276 248 l-50 6 0 42 c0 218 -151 410 -358 454 -164 34 -327 -17
-432 -137 l-40 -45 -51 17 c-28 9 -70 16 -93 16 l-41 1 30 28 c17 15 52 51 80
80 l49 51 -105 0 -104 0 -55 -50 c-30 -27 -58 -50 -63 -50 -5 0 -24 12 -42 26
-86 65 -243 91 -362 59z m204 -130 c61 -18 129 -68 167 -124 36 -51 64 -59
128 -36 71 25 151 16 223 -25 68 -39 93 -35 122 17 64 114 155 173 276 181 97
6 172 -22 240 -90 69 -69 91 -124 91 -223 0 -44 -4 -101 -8 -126 -8 -44 -7
-48 18 -64 23 -15 34 -16 80 -7 97 19 188 -23 233 -107 46 -89 16 -209 -69
-267 l-41 -29 -241 -5 c-187 -5 -249 -9 -276 -21 -47 -21 -106 -89 -119 -136
-7 -23 -11 -171 -11 -383 0 -342 0 -345 -24 -395 -42 -89 -112 -135 -206 -135
-62 0 -114 21 -158 63 -68 65 -66 54 -72 467 -5 360 -6 377 -27 415 -24 46
-54 75 -103 101 -33 18 -80 19 -895 24 -946 6 -885 1 -947 67 -40 41 -58 94
-58 165 1 110 47 177 163 233 l61 30 12 80 c14 99 39 149 104 208 58 52 121
77 196 77 87 0 149 -26 225 -97 38 -35 76 -63 85 -63 8 0 36 12 62 28 40 23
58 27 122 27 67 0 81 -4 133 -33 76 -45 94 -39 145 42 81 130 223 184 369 141z
m195 -1063 c23 -22 23 -24 28 -395 4 -228 10 -384 17 -403 15 -42 54 -103 89
-138 201 -200 544 -97 603 182 7 33 11 178 11 387 l0 334 24 28 24 28 166 3
166 3 0 -1670 0 -1671 -1350 0 -1350 0 0 1670 0 1670 775 -2 774 -3 23 -23z
m-1702 -606 l0 -124 -132 -4 c-159 -5 -212 -24 -281 -97 -86 -91 -82 -55 -82
-826 0 -677 0 -680 21 -720 30 -55 70 -94 124 -119 38 -17 69 -21 198 -24
l152 -4 0 -150 0 -151 -202 6 c-220 5 -268 15 -358 72 -92 58 -169 165 -201
280 -21 74 -21 1566 0 1640 42 152 154 275 295 325 43 16 85 19 259 19 l207 1
0 -124z m0 -1021 l0 -765 -135 0 c-148 0 -176 7 -214 56 -21 26 -21 33 -21
681 0 722 -2 696 64 749 48 39 62 42 194 43 l112 1 0 -765z m2985 -1985 l0
-165 -1522 -3 -1523 -2 0 163 c0 90 3 167 7 170 3 4 689 6 1522 5 l1516 -3 0
-165z"/>
<path d="M2386 3620 c-210 -36 -362 -250 -326 -459 43 -253 296 -398 538 -309
103 38 198 139 235 252 25 75 22 188 -7 259 -35 85 -73 135 -140 184 -84 62
-198 90 -300 73z m190 -155 c92 -45 145 -133 145 -241 0 -241 -277 -361 -453
-196 -102 95 -116 249 -33 359 83 108 217 139 341 78z"/>
<path d="M3007 2715 c-85 -32 -146 -94 -183 -183 -60 -145 6 -314 151 -390 43
-23 63 -27 135 -27 70 0 93 4 130 23 60 31 122 93 151 150 34 67 34 196 1 264
-30 60 -90 120 -150 150 -58 28 -177 35 -235 13z m199 -140 c99 -58 113 -207
28 -287 -116 -108 -304 -26 -304 132 0 142 152 228 276 155z"/>
<path d="M2025 2547 c-73 -20 -127 -50 -180 -104 -241 -241 -69 -655 270 -654
113 1 198 37 277 118 225 231 72 628 -249 648 -38 3 -90 -1 -118 -8z m167
-127 c57 -16 119 -69 150 -129 54 -103 29 -232 -59 -312 -49 -45 -101 -63
-173 -62 -207 2 -323 244 -198 413 59 80 178 118 280 90z"/>
<path d="M3610 1983 c-142 -24 -261 -135 -290 -271 -33 -156 44 -315 187 -388
52 -26 68 -29 153 -29 82 0 102 4 144 25 108 55 174 141 196 255 36 186 -90
369 -280 405 -54 10 -66 11 -110 3z m147 -146 c108 -56 151 -183 99 -292 -40
-86 -103 -125 -198 -125 -211 1 -295 254 -131 393 54 47 164 58 230 24z"/>
<path d="M2605 1586 c-117 -29 -215 -110 -267 -222 -74 -159 -34 -348 100
-471 15 -13 56 -39 92 -56 61 -30 72 -32 170 -32 98 0 110 2 170 32 248 122
304 448 111 641 -103 103 -239 142 -376 108z m182 -129 c104 -39 183 -148 183
-253 0 -156 -120 -277 -274 -276 -75 0 -122 18 -179 71 -65 60 -91 126 -85
217 10 150 118 252 268 252 30 0 69 -5 87 -11z"/>
</g>
</svg>
